<?xml version="1.0" encoding="UTF-8"?>
<svg id="Layer_1" xmlns="http://www.w3.org/2000/svg" version="1.1" viewBox="0 0 72 72">
  <!-- Generator: Adobe Illustrator 30.1.0, SVG Export Plug-In . SVG Version: 2.1.1 Build 136)  -->
  <defs>
    <style>
      .st0 {
        fill: #ef0338;
      }
    </style>
  </defs>
  <path class="st0" d="M35.964,26.877c1.19-7.98-4.72-13.32-14.4-13.32-8.61,0-15.15,4.33-16.16,11.44-.56,4.15.69,7.54,3.27,9.87-3.9,2.07-6.47,5.41-7.1,9.49-1.2,8.36,5.03,14.08,15.46,14.08,9.25,0,16.16-4.65,17.23-12.19.69-4.65-.88-8.49-4.09-10.94,3.15-1.95,5.22-4.91,5.79-8.43ZM22.894,45.047c-.21.95-.87,1.81-1.6,2.18-1,.51-1.95.47-2.85-.11-.38,1.21.87,1.99.85,2.35,0,.06-.07.23-.27.23l-3.14.01c-1.3,0,1.36-1.16,1.34-2.62-1.07.52-1.95.68-2.81.22-.68-.37-1.11-1.22-1-2.25.13-1.19.95-2.29,1.99-3.06l3.64-2.7,2.57,2.46c.87.83,1.58,1.95,1.28,3.29ZM24.844,27.857l-4.44,4.4c-.19.19-.33.28-.48.29-.19.02-.37-.05-.49-.23l-3.2-4.58c-.19-.28-.19-.54.1-.83l4.71-4.67c.16-.15.28-.23.43-.24.21-.01.33.09.46.27l3.13,4.5c.25.36.13.75-.22,1.09h0ZM70.544,26.877c1.19-7.98-4.72-13.32-14.4-13.32-8.61,0-15.15,4.33-16.16,11.44-.56,4.15.69,7.54,3.27,9.87-3.9,2.07-6.47,5.41-7.1,9.49-1.2,8.36,5.03,14.08,15.46,14.08,9.25,0,16.16-4.65,17.23-12.19.69-4.65-.88-8.49-4.09-10.94,3.15-1.95,5.22-4.91,5.79-8.43h0ZM56.294,46.207c-1.23,1-2.48,1.86-3.72,2.76-.54.39-.96.34-1.35-.04l-2.62-2.54c-1.08-1.04-1.5-2.56-.91-4.14.62-1.68,2.16-2.59,3.83-2.34.66.1,1.18.42,1.68.96.86-.68,1.68-1.01,2.64-.99,1.16.04,2.03.57,2.34,1.65.46,1.63-.3,3.4-1.89,4.68h0ZM59.754,27.777c-.19,1.28-1.51,2.42-2.8,2.31-.66-.01-1.16-.22-1.48-.61-.35.16-.4.5-.14,1.04.17.41.22.92.73,1.17.16.08.22.59-.02.6-1.25.03-2.43.09-3.61-.03-.21-.02-.06-.37.04-.44.95-.66,1.28-1.02,1.76-2.43-1.23.89-2.72,1.02-3.57.09-.7-.76-.64-1.87-.04-2.78.6-.89,1.63-1.27,2.78-1.22-.42-1.2-.1-2.44,1-3.22,1.03-.72,2.32-.68,3.08.19.67.78.53,1.99-.22,3.04,1.66-.18,2.7.86,2.49,2.29h0Z"/>
</svg>