<?xml version="1.0" encoding="UTF-8"?>
<svg id="Layer_1" xmlns="http://www.w3.org/2000/svg" width="72" height="72" version="1.1" viewBox="0 0 72 72">
  <!-- Generator: Adobe Illustrator 30.6.0, SVG Export Plug-In . SVG Version: 2.1.4 Build 109)  -->
  <defs>
    <style>
      .st0 {
        fill: #fff;
        fill-rule: evenodd;
      }

      .st1 {
        fill: #1d1f27;
      }

      .st2 {
        fill: #eb4758;
      }
    </style>
  </defs>
  <rect class="st1" width="72" height="72" rx="15.266" ry="15.266"/>
  <g>
    <path class="st2" d="M5.046,26.928h6.449l1.118,12.898,5.846-12.898h6.363l-10.146,19.432h-6.363l-3.267-19.432Z"/>
    <path class="st2" d="M46.92,25.553c-.516,0-1.032.172-1.462.43s-.774.688-1.032,1.204c-.171.516-.258,1.032-.171,1.548.086.516.344,1.032.774,1.376.344.344.86.602,1.376.774.516.086,1.032.086,1.548-.172.516-.172.946-.516,1.204-1.032.258-.43.43-.946.43-1.462,0-.688-.258-1.376-.774-1.892-.516-.516-1.204-.774-1.892-.774h0Z"/>
    <path class="st0" d="M52.337,32.174h5.159l-.43,2.235c1.548-1.806,3.353-2.666,5.331-2.666,1.376,0,2.494.344,3.353,1.032s1.204,1.806,1.204,3.353c0,.602-.086,1.118-.172,1.72l-1.548,8.512h-5.589l1.29-7.566v-.946c0-1.118-.516-1.72-1.634-1.72-.344,0-.602,0-.946.172s-.602.258-.774.516c-.344.344-.688,1.118-.946,2.235l-1.29,7.309h-5.675l2.666-14.187h0ZM33.421,41.03l3.783-8.856h5.331l-7.051,14.187h-5.503l-.688-8.254-3.44,8.341h-5.503l-1.032-6.707,3.869-7.481h.43l.602,8.856h.086l3.783-8.856h4.643l.688,8.77h0ZM49.758,32.174h-5.675l-2.494,14.187h5.589s2.58-14.187,2.58-14.187Z"/>
  </g>
</svg>