<?xml version="1.0" encoding="UTF-8"?>
<svg id="Layer_1" xmlns="http://www.w3.org/2000/svg" xmlns:xlink="http://www.w3.org/1999/xlink" version="1.1" viewBox="0 0 266.681 45.566">
  <!-- Generator: Adobe Illustrator 30.1.0, SVG Export Plug-In . SVG Version: 2.1.1 Build 136)  -->
  <defs>
    <style>
      .st0 {
        fill: url(#linear-gradient1);
      }

      .st1 {
        fill: url(#linear-gradient);
      }
    </style>
    <linearGradient id="linear-gradient" x1=".862" y1="22.816" x2="196.003" y2="22.816" gradientUnits="userSpaceOnUse">
      <stop offset="0" stop-color="#232020"/>
      <stop offset="1" stop-color="#453d3d"/>
    </linearGradient>
    <linearGradient id="linear-gradient1" x1="210.412" y1="-2.554" x2="251.63" y2="46.568" gradientUnits="userSpaceOnUse">
      <stop offset="0" stop-color="#fb0048"/>
      <stop offset="1" stop-color="#ba020a"/>
    </linearGradient>
  </defs>
  <g id="HOrizontal">
    <g>
      <path d="M58.631,31.432c-3.335,6.71-10.14,10.278-17.436,10.919-5.361.472-10.648.549-16.051.536-8.134-.021-16.156-.393-24.267-.891-.01-.574-.085-1.029,0-1.586.003-.029.008-.059.013-.088L7.03,5l9.039-.004c.007.033.012.065.016.098.073.474.011.903.014,1.442l-4.356,25.046-.263,1.509c6.273.27,12.4.317,18.629.16,3.565-.091,7.002-.264,10.542-.609,1.597-.156,3.029-.546,4.462-1.219,3.412-1.604,5.665-4.796,6.001-8.601.04-.456.034-.912-.015-1.363-.196-1.825-1.086-3.568-2.416-4.837-1.407-1.342-3.164-1.988-5.063-2.246-3.221-.44-6.342.644-8.498,3.114-1.578,1.81-2.652,4.11-2.848,6.527-.025.304-.036.611-.033.918.027,2.299,1.157,4.326,2.714,5.826l.026.026c.027.268.039.513.038.753,0,.245-.015.487-.038.741-1.343-.029-2.618-.213-3.795-.582-2.208-.693-4.073-2.038-5.394-4.244-1.14-1.905-1.373-3.912-1.413-6.078-.007-.356-.003-.71.012-1.061.226-5.541,3.056-10.54,7.914-13.386,3.271-1.916,7.349-2.783,11.143-2.54,3.118.2,6.124.878,8.882,2.344,4.197,2.228,7.084,6.059,7.977,10.723.257,1.341.312,2.597.337,3.952.002.132.004.265.007.399.05,3.354-.517,6.604-2.017,9.623h-.003ZM196.028,6.089l-3.969,22.676c-.384,2.196-1.171,4.177-2.315,6.054-2.042,3.349-5.244,5.681-9.061,6.628-2.926.726-5.916.729-8.845.047-5.456-1.272-9.451-5.423-9.24-11.301.005-.147.009-.29.011-.43.016-.936-.016-1.744.144-2.669l3.933-22.605h9.008c.009.036.016.072.023.107.093.49.04.939.005,1.488l-3.647,21.527-.069.411c-.303,1.787,1.515,3.456,3.043,3.897,4.031,1.162,7.448-1.791,8.121-5.647l3.806-21.785,9.03-.005c.007.043.012.086.016.128.054.485.01.923.008,1.477l-.002.002ZM163.715,4.593c-.004-.036-.01-.072-.016-.107l-24.698.002-6.162,35.39-.004.024c-.015.579-.034,1.021.011,1.579l9.045.005,2.467-14.151h11.143l1.218-6.969c.096-.548.038-1.075.016-1.623-.002-.036-.003-.073-.004-.109h-.702l-10.155.002.264-1.52.645-3.718,15.677-.017,1.249-7.179c.04-.561.08-1.08.007-1.61h-.001ZM106.9,24.446c-.073,1.515.394,3.016,1.066,4.36,1.158,2.318,3.328,3.754,5.89,4.079,2.038.299,4.024-.106,5.898-.861l.87-4.172h-.317l-7.998-.011c.033-.49-.162-1.045,0-1.52v-.002c.005-.014.011-.029.016-.043l2.686-6.781,15.647.009c0,.026,0,.052.001.077.011.516.102.966.007,1.485l-3.265,17.924c-5.902,3.442-13.202,4.764-19.688,2.421-4.436-1.598-7.801-4.967-9.344-9.404-.777-2.236-.997-4.474-.985-6.844,0-.202.003-.404.009-.605.054-2.419.375-4.728,1.166-7.017,2.017-5.836,6.624-10.266,12.551-12.059,5.634-1.761,12.826-1.146,18.295,1.172l1.967,9.132c.001.005.002.012.003.017.112.537.042,1.069-.008,1.6-5.327-3.246-13.119-4.527-18.719-1.702-3.223,1.625-5.38,4.682-5.713,8.281-.014.154-.025.309-.033.465h-.002ZM97.42,6.805l-6.163,35.156-7.152.046-11.099-21.019-3.641,21.003-8.657.004c-.11-.486-.024-.902-.053-1.459l.03-.176,6.169-35.368,8.067.005,10.46,19.376,3.415-19.378h8.637c.004.028.008.054.01.08.077.568.056,1.095-.024,1.729h0Z"/>
      <path class="st1" d="M97.42,4.953h-8.637l-3.415,19.377-10.46-19.376-8.067-.005-6.169,35.368c.007.038.014.076.023.115l8.657-.004,3.641-21.003,11.099,21.019,7.152-.046,6.163-35.156c.009-.072.017-.141.024-.21-.002-.026-.005-.052-.01-.079h0ZM112.632,14.138c5.6-2.825,13.392-1.544,18.719,1.702.002-.027.005-.053.008-.08-.001-.005-.002-.012-.003-.017l-1.967-9.132c-5.469-2.319-12.661-2.933-18.295-1.172-5.927,1.793-10.534,6.223-12.551,12.059-.791,2.289-1.112,4.598-1.166,7.017.046,2.035.3,3.983.976,5.929,1.544,4.437,4.909,7.806,9.344,9.404,6.486,2.344,13.786,1.021,19.688-2.421l3.259-17.89c-.001-.025-.001-.051-.001-.077l-15.647-.009-2.686,6.781c-.005.014-.011.029-.016.043v.002l8.315.011-.317,1.52h.317l-.87,4.172c-1.874.754-3.86,1.159-5.898.861-2.562-.326-4.732-1.762-5.89-4.079-.672-1.344-1.139-2.844-1.066-4.36.008-.155.018-.31.033-.465-.037-.35-.05-.702-.033-1.055.183-3.799,2.385-7.051,5.746-8.745h.001ZM60.291,17.413c-.892-4.663-3.78-8.495-7.977-10.723-2.758-1.465-5.764-2.144-8.882-2.344-3.794-.243-7.872.624-11.143,2.54-4.858,2.846-7.688,7.845-7.914,13.386.066,1.992.343,3.849,1.401,5.619,2.021,3.376,5.314,4.735,9.163,4.825-1.557-1.5-2.687-3.527-2.714-5.826-.003-.307.008-.614.033-.918-.02-.198-.03-.398-.033-.601-.033-2.749,1.104-5.408,2.881-7.446,2.156-2.471,5.277-3.554,8.498-3.114,1.899.258,3.656.904,5.063,2.246,1.661,1.584,2.634,3.905,2.432,6.201-.004.052-.01.104-.015.156.049.452.055.908.015,1.363-.335,3.805-2.589,6.996-6.001,8.601-1.433.673-2.865,1.063-4.462,1.219-3.54.345-6.977.518-10.542.609-6.229.157-12.356.111-18.629-.16l.263-1.509c-.087-.003-.175-.008-.263-.011l4.605-26.476c-.004-.033-.01-.065-.016-.098l-9.039.004L.875,40.279c-.005.029-.01.059-.013.088,0,.022,0,.045,0,.066,8.111.498,16.133.871,24.267.891,5.403.013,10.689-.064,16.051-.536,7.296-.642,14.101-4.21,17.436-10.919,1.333-2.682,1.929-5.546,2.01-8.503-.025-1.356-.079-2.612-.337-3.952h.001ZM163.685,4.442l-24.698.002-6.162,35.39c.002.027.004.055.007.084l9.045.005,2.467-14.151h11.143l1.218-6.969c.007-.035.012-.069.016-.103l-.706-.109h-.001l-10.155.002.264-1.52h-.264l.909-5.238,15.677-.017,1.249-7.179c.002-.03.004-.06.007-.09-.004-.036-.01-.072-.016-.107ZM195.989,4.44l-9.03.005-3.806,21.785c-.673,3.856-4.09,6.809-8.121,5.647-1.527-.441-3.346-2.11-3.043-3.897l.069-.411c-.103-.357-.134-.731-.069-1.108l3.711-21.907c-.007-.036-.014-.072-.023-.109h-9.008l-3.933,22.606c-.161.925-.128,1.734-.144,2.669.288,5.299,4.117,9.019,9.229,10.211,2.929.683,5.919.68,8.845-.047,3.817-.948,7.019-3.279,9.061-6.628,1.144-1.877,1.931-3.858,2.315-6.054l3.961-22.634c-.004-.042-.01-.085-.016-.128h.002Z"/>
    </g>
    <g>
      <path d="M231.278,6.464c-.699-3.196-3.532-4.247-6.524-4.248h-14.144c-3.267,0-6.301,1.152-7.987,4.061-.662,1.14-1.11,2.331-1.353,3.643l-1.13,6.134c-.178.967-.226,1.874-.208,2.797.205,1.677,1.11,3.138,2.741,4.053-.334.392-.88.395-1.249.621-2.069,1.272-3.612,3.104-4.05,5.586l-1.254,7.107c-.216,1.228-.232,2.374-.218,3.556.086.008.081.111.09.211.334,3.507,3.482,4.7,6.637,4.7l15.047-.002c1.22,0,2.313-.173,3.449-.518,3.503-1.064,5.328-4.137,5.95-7.585l1.359-7.541c.132-2.255-.132-3.727-1.853-5.301-.299-.276-.839-.408-1.201-.699-.3.118-.278-.25-.018-.16,2.399-1.141,4.203-3.162,4.686-5.778l1.131-6.138c.115-.62.115-1.214.263-1.764-.032-.907.039-1.8-.165-2.736h.001ZM219.739,28.378l-1.48,8.432-13.253-.013c-.14,0-.284-.015-.257-.168l1.039-5.746c.187-1.038.107-1.827-.655-2.508-1.038-.781-2.226-1.085-3.422-1.508l18.268-.026c.018.579-.158,1.057-.24,1.537ZM222.252,11.598l-1.249,7.485-12.341-.034c-.11-.002-.173.031-.205.006-.036-.027-.079-.107-.065-.19l.86-4.786c.181-1.006.094-1.777-.652-2.445-1.115-.809-2.366-1.182-3.604-1.532l17.531-.01c.063.557-.197,1.039-.274,1.506h-.001ZM265.678,6.464c-.697-3.196-3.53-4.247-6.524-4.248h-14.144c-3.267,0-6.3,1.152-7.987,4.061-.662,1.14-1.111,2.331-1.353,3.643l-1.13,6.134c-.178.967-.226,1.874-.208,2.797.205,1.677,1.111,3.138,2.742,4.053-.336.392-.881.395-1.251.621-2.069,1.272-3.611,3.104-4.05,5.586l-1.253,7.107c-.218,1.228-.232,2.374-.218,3.556.084.008.079.111.089.211.336,3.507,3.482,4.7,6.637,4.7l15.048-.002c1.219,0,2.311-.173,3.448-.518,3.503-1.064,5.33-4.137,5.95-7.585l1.359-7.541c.134-2.255-.131-3.727-1.851-5.301-.3-.276-.841-.408-1.203-.699-.299.118-.278-.25-.016-.16,2.397-1.141,4.203-3.162,4.684-5.778l1.133-6.138c.113-.62.113-1.214.263-1.764-.034-.907.039-1.8-.166-2.736h0ZM254.138,28.378l-1.48,8.432-13.252-.013c-.14,0-.286-.015-.258-.168l1.039-5.746c.187-1.038.107-1.827-.654-2.508-1.039-.781-2.226-1.085-3.424-1.508l18.27-.026c.018.579-.158,1.057-.242,1.537h0ZM256.652,11.598l-1.248,7.485-12.341-.034c-.11-.002-.174.031-.205.006-.037-.027-.079-.107-.065-.19l.859-4.786c.181-1.006.094-1.777-.652-2.445-1.115-.809-2.366-1.182-3.603-1.532l17.529-.01c.063.557-.197,1.039-.274,1.506Z"/>
      <path class="st0" d="M231.263,4.791c-.698-3.196-3.531-4.247-6.524-4.248h-14.145c-3.266,0-6.3,1.153-7.986,4.06-.662,1.141-1.111,2.332-1.353,3.644l-1.129,6.133c-.178.966-.227,1.874-.21,2.796.205,1.678,1.111,3.139,2.742,4.053-.335.393-.88.395-1.251.622-2.069,1.272-3.612,3.104-4.049,5.586l-1.254,7.107c-.216,1.228-.232,2.374-.218,3.556.085.008.08.111.09.211.334,3.508,3.481,4.7,6.637,4.7h15.048c1.219,0,2.312-.174,3.449-.519,3.502-1.065,5.328-4.138,5.949-7.586l1.359-7.54c.134-2.255-.131-3.727-1.852-5.302-.3-.276-.839-.408-1.202-.699-.3.119-.277-.249-.017-.158,2.398-1.141,4.203-3.162,4.686-5.778l1.131-6.139c.115-.62.114-1.214.263-1.764-.033-.908.039-1.801-.165-2.737v.002ZM219.724,26.706l-1.48,8.431-13.253-.012c-.14,0-.284-.015-.256-.168l1.039-5.746c.187-1.038.106-1.828-.655-2.509-1.039-.782-2.226-1.084-3.423-1.508l18.269-.025c.018.579-.157,1.056-.241,1.536h0ZM222.237,9.926l-1.248,7.485-12.342-.035c-.11,0-.173.031-.205.008-.036-.027-.079-.106-.064-.191l.86-4.786c.18-1.005.093-1.776-.652-2.445-1.115-.809-2.366-1.181-3.604-1.533l17.532-.009c.063.557-.198,1.039-.276,1.506h-.001ZM265.663,4.791c-.697-3.196-3.53-4.247-6.524-4.248h-14.145c-3.266,0-6.299,1.153-7.985,4.06-.662,1.141-1.112,2.332-1.353,3.644l-1.13,6.133c-.178.966-.226,1.874-.208,2.796.204,1.678,1.109,3.139,2.742,4.053-.335.393-.881.395-1.251.622-2.07,1.272-3.612,3.104-4.05,5.586l-1.253,7.107c-.217,1.228-.232,2.374-.218,3.556.084.008.079.111.089.211.335,3.508,3.481,4.7,6.638,4.7h15.048c1.218,0,2.311-.174,3.448-.519,3.503-1.065,5.329-4.138,5.95-7.586l1.359-7.54c.134-2.255-.131-3.727-1.852-5.302-.301-.276-.84-.408-1.203-.699-.299.119-.277-.249-.016-.158,2.398-1.141,4.203-3.162,4.685-5.778l1.132-6.139c.114-.62.113-1.214.263-1.764-.034-.908.039-1.801-.166-2.737v.002ZM254.124,26.706l-1.48,8.431-13.252-.012c-.14,0-.284-.015-.257-.168l1.039-5.746c.188-1.038.107-1.828-.653-2.509-1.039-.782-2.226-1.084-3.423-1.508l18.269-.025c.018.579-.157,1.056-.242,1.536h0ZM256.637,9.926l-1.247,7.485-12.342-.035c-.11,0-.174.031-.205.008-.036-.027-.079-.106-.064-.191l.859-4.786c.181-1.005.093-1.776-.651-2.445-1.116-.809-2.368-1.181-3.604-1.533l17.53-.009c.063.557-.198,1.039-.276,1.506Z"/>
    </g>
  </g>
</svg>