<?xml version="1.0" encoding="UTF-8"?>
<svg id="Layer_1" xmlns="http://www.w3.org/2000/svg" xmlns:xlink="http://www.w3.org/1999/xlink" version="1.1" viewBox="0 0 266.681 45.566">
  <!-- Generator: Adobe Illustrator 30.1.0, SVG Export Plug-In . SVG Version: 2.1.1 Build 136)  -->
  <defs>
    <style>
      .st0 {
        fill: url(#linear-gradient);
      }

      .st1 {
        fill: #ef0338;
      }
    </style>
    <linearGradient id="linear-gradient" x1=".958" y1="767.726" x2="192.209" y2="767.726" gradientTransform="translate(0 -744)" gradientUnits="userSpaceOnUse">
      <stop offset="0" stop-color="#373a43"/>
      <stop offset="1" stop-color="#4d545d"/>
    </linearGradient>
  </defs>
  <path class="st0" d="M17.369,40.513c8.865,0,15.969-5.721,17.352-13.643h-10.751c-1.006,2.263-3.269,3.772-5.91,3.772-4.275,0-7.042-3.206-6.476-7.482.503-3.647,3.647-6.35,7.293-6.35,3.081,0,5.281,1.509,5.847,3.772h10.814c-.314-7.922-6.413-13.643-15.969-13.643-9.241,0-17.163,6.162-18.42,15.53-1.446,10.248,5.47,18.044,16.221,18.044h-.001ZM71.374,27.503l2.77-19.81h-10.19l-.44,2.96c-2.26-2.33-5.47-3.71-9.62-3.71-8.17,0-15.09,6.1-16.47,15.53-1.51,10.24,4.65,18.04,14.21,18.04,3.83,0,7.23-1.7,9.87-4.53,1.32,2.52,4.09,3.78,8.36,3.78h2.77l1.44-9.88h-.69c-1.57,0-2.26-.75-2.01-2.38ZM61.634,24.233c-.57,3.64-3.65,6.41-7.23,6.41-4.34,0-7.11-3.21-6.48-7.48.5-3.65,3.58-6.35,7.23-6.35,4.34,0,7.04,3.14,6.48,7.42ZM89.356,40.513c7.356,0,13.14-3.772,13.894-9.808,1.698-12.889-15.843-9.808-15.278-14.083.189-1.132,1.509-1.949,3.144-1.949,2.201,0,3.584,1.069,3.332,2.452h9.997c.817-5.721-4.59-10.185-13.14-10.185-6.476,0-12.574,2.892-13.391,9.368-1.824,13.266,15.718,9.808,15.152,14.334-.126,1.132-1.635,2.012-3.458,2.012-2.452,0-4.087-1.195-3.835-2.829h-10.059c-.88,5.973,4.59,10.688,13.643,10.688h0ZM105.143,39.758h10.185l4.527-32.064h-10.185l-4.527,32.064ZM119.163,39.758h10.185l2.578-18.107c.817-2.955,3.269-4.841,6.413-4.841,3.269,0,5.093,2.138,4.59,5.533l-1.006,7.419c-.943,6.664,2.075,9.996,8.991,9.996h2.829l1.383-9.871h-.692c-1.509,0-2.201-.754-2.012-2.389l1.006-7.419c1.132-8.425-2.955-13.14-10.248-13.14-3.647,0-6.916,1.194-9.682,3.521l.377-2.766h-10.185l-4.527,32.064h0ZM175.744,6.943c-9.24,0-17.16,6.16-18.42,15.53-1.45,10.24,5.47,18.04,16.22,18.04,9.24,0,17.17-6.16,18.49-15.53,1.38-10.25-5.54-18.04-16.29-18.04h0ZM181.534,24.293c-.51,3.65-3.59,6.35-7.3,6.35-4.27,0-7.04-3.21-6.47-7.48.56-3.65,3.64-6.35,7.29-6.35,4.34,0,7.04,3.2,6.48,7.48h0Z"/>
  <path class="st1" d="M231.07,13.66c1.19-7.98-4.72-13.32-14.4-13.32-8.61,0-15.15,4.33-16.16,11.44-.56,4.15.69,7.54,3.27,9.87-3.9,2.07-6.47,5.41-7.1,9.49-1.2,8.36,5.03,14.08,15.46,14.08,9.25,0,16.16-4.65,17.23-12.19.69-4.65-.88-8.49-4.09-10.94,3.15-1.95,5.22-4.91,5.79-8.43ZM218,31.83c-.21.95-.87,1.81-1.6,2.18-1,.51-1.95.47-2.85-.11-.38,1.21.87,1.99.85,2.35,0,.06-.07.23-.27.23l-3.14.01c-1.3,0,1.36-1.16,1.34-2.62-1.07.52-1.95.68-2.81.22-.68-.37-1.11-1.22-1-2.25.13-1.19.95-2.29,1.99-3.06l3.64-2.7,2.57,2.46c.87.83,1.58,1.95,1.28,3.29ZM219.95,14.64l-4.44,4.4c-.19.19-.33.28-.48.29-.19.02-.37-.05-.49-.23l-3.2-4.58c-.19-.28-.19-.54.1-.83l4.71-4.67c.16-.15.28-.23.43-.24.21-.01.33.09.46.27l3.13,4.5c.25.36.13.75-.22,1.09h0ZM265.65,13.66c1.19-7.98-4.72-13.32-14.4-13.32-8.61,0-15.15,4.33-16.16,11.44-.56,4.15.69,7.54,3.27,9.87-3.9,2.07-6.47,5.41-7.1,9.49-1.2,8.36,5.03,14.08,15.46,14.08,9.25,0,16.16-4.65,17.23-12.19.69-4.65-.88-8.49-4.09-10.94,3.15-1.95,5.22-4.91,5.79-8.43h0ZM251.4,32.99c-1.23,1-2.48,1.86-3.72,2.76-.54.39-.96.34-1.35-.04l-2.62-2.54c-1.08-1.04-1.5-2.56-.91-4.14.62-1.68,2.16-2.59,3.83-2.34.66.1,1.18.42,1.68.96.86-.68,1.68-1.01,2.64-.99,1.16.04,2.03.57,2.34,1.65.46,1.63-.3,3.4-1.89,4.68h0ZM254.86,14.56c-.19,1.28-1.51,2.42-2.8,2.31-.66-.01-1.16-.22-1.48-.61-.35.16-.4.5-.14,1.04.17.41.22.92.73,1.17.16.08.22.59-.02.6-1.25.03-2.43.09-3.61-.03-.21-.02-.06-.37.04-.44.95-.66,1.28-1.02,1.76-2.43-1.23.89-2.72,1.02-3.57.09-.7-.76-.64-1.87-.04-2.78.6-.89,1.63-1.27,2.78-1.22-.42-1.2-.1-2.44,1-3.22,1.03-.72,2.32-.68,3.08.19.67.78.53,1.99-.22,3.04,1.66-.18,2.7.86,2.49,2.29h0Z"/>
</svg>