<?xml version="1.0" encoding="UTF-8"?>
<svg id="Layer_1" xmlns="http://www.w3.org/2000/svg" width="240.205" height="45.567" version="1.1" viewBox="0 0 240.205 45.567">
  <!-- Generator: Adobe Illustrator 30.6.0, SVG Export Plug-In . SVG Version: 2.1.4 Build 109)  -->
  <defs>
    <style>
      .st0 {
        fill: #fff;
        fill-rule: evenodd;
      }

      .st1 {
        fill: #eb4758;
      }
    </style>
  </defs>
  <path class="st1" d="M0,3h14.064l2.438,28.127L29.252,3h13.876l-22.127,42.378H7.125L0,3Z"/>
  <path class="st1" d="M91.319,0C90.194,0,89.069.375,88.131.938s-1.687,1.5-2.25,2.625c-.374,1.125-.562,2.25-.374,3.375.187,1.125.75,2.25,1.687,3,.75.75,1.875,1.313,3.001,1.688,1.125.188,2.25.188,3.375-.375,1.126-.375,2.063-1.125,2.625-2.25.562-.938.938-2.063.938-3.188,0-1.5-.562-3-1.688-4.125-1.125-1.125-2.625-1.688-4.125-1.688h0Z"/>
  <path class="st0" d="M117.383,1.875c.938,0,1.876.188,2.625.75.375.188.75.563.938.938s.188.938.188,1.313v.75c-.188.75-.375,1.688-.938,2.25-.563.563-1.126,1.125-1.688,1.313-.188,0-.375.188-.562.188s-.375.188-.75.188c-1.313.188-2.625,0-3.563-.75-.375-.188-.562-.563-.75-.938-.188-.375-.188-.75-.188-1.313v-.75c.188-1.125.75-2.25,1.688-3,.75-.563,1.875-.938,3-.938h0ZM117.009,3.938c-.188,0-.563,0-.75.188-.187.188-.375.375-.562.563-.188.563-.375,1.313-.563,1.875,0,.75.375,1.313.938,1.313.187,0,.562,0,.75-.188s.375-.375.562-.563c.188-.563.375-1.125.375-1.688.188-1.125,0-1.5-.75-1.5ZM108.758,4.876l3.001.188v-.375c0-.375,0-.75-.187-.938-.188-.375-.375-.563-.563-.75-.75-.563-1.687-.938-2.625-.75-1.313,0-2.438.375-3.376,1.125-.75.75-1.313,1.688-1.5,2.813v.75c0,.375,0,.75.187,1.125.188.375.375.75.75.938.75.563,1.688.938,2.625.938,1.125,0,2.062-.188,3-.75.75-.563,1.501-1.313,1.688-2.25h-3.001c-.187.75-.75,1.125-1.312,1.125-.75,0-1.126-.375-1.126-1.313,0-.75.188-1.313.562-1.875.188-.188.375-.375.563-.563.187-.188.562-.188.75-.188h.375c.187,0,.187.188.375.188-.375,0-.188.375-.188.563h.002ZM103.132,14.439h11.251l-.938,4.875c3.375-3.938,7.313-5.813,11.625-5.813,3.001,0,5.438.75,7.313,2.25s2.625,3.938,2.625,7.313c0,1.313-.187,2.438-.375,3.75l-3.375,18.564h-12.189l2.813-16.501v-2.063c0-2.438-1.125-3.75-3.563-3.75-.75,0-1.312,0-2.062.375s-1.313.563-1.688,1.125c-.75.75-1.5,2.438-2.062,4.875l-2.813,15.939h-12.377l5.813-30.94h.002ZM61.88,33.753l8.251-19.314h11.626l-15.376,30.94h-12.001l-1.5-18.001-7.501,18.189h-12.001l-2.25-14.626,8.438-16.314h.938l1.313,19.314h.188l8.251-19.314h10.126l1.5,19.126h-.002ZM97.507,14.439h-12.376l-5.438,30.94h12.188s5.626-30.94,5.626-30.94ZM125.259,2.25h-2.625l-1.313,7.501h2.813l.75-3.75c0-.375.187-.75.562-1.125.187-.188.188-.188.375-.188h.375c.562,0,.75.188.75.75v.75l-.75,3.938h3l.75-3.75c0-.375.187-.938.562-1.313.188-.188.562-.188.75-.188h.375c.125,0,.249.063.374.188.187.188.188.188.188.375v1.125l-.75,3.75h3.001l.75-4.5v-1.125c0-.375,0-.563-.187-.938-.187-.375-.187-.563-.562-.75-.562-.75-1.126-.938-1.875-.938-.563,0-1.126.188-1.501.375-.562.188-.938.563-1.312.938-.188-.938-.938-1.313-2.063-1.313h-.75c-.187,0-.374,0-.562.188,0,0-.187,0-.187.188-.375.188-.938.563-1.126.938l.188-1.125h0Z"/>
  <path class="st1" d="M211.515,0h10.689l1.125,3h-10.688L211.515,0h0Z"/>
  <path class="st1" d="M141.948,11.813h9.563L158.449,0h-9.375l-7.126,11.813Z"/>
  <path class="st0" d="M188.264,7.501l.562-4.5h-10.688L178.7.001h-9.376l-.562,3h-11.438l-.562,4.5h10.501l-.562,2.25h-10.314l-.187,1.125-.188.938h-9.375l-7.126,12.376h2.437l-3.562,21.189h9l4.125-23.064h-1.313l6.001-10.313-.188.938-1.313,11.251h31.315l1.688-14.439h-11.626l.563-2.25h11.626ZM165.387,19.314h-2.25l.562-4.125v-.375h2.25l-.562,4.5ZM177.013,15.001v-.375h2.25l-.562,4.5h-2.25s.562-4.125.562-4.125ZM172.138,19.314h-2.25l.562-4.125v-.375h2.25l-.562,4.5ZM185.451,31.127h-32.628l.562-4.688h32.628l-.562,4.688ZM176.075,32.44h-6.375l.188,6.75h6l.187-6.75ZM160.324,32.252h8.626l-.938,8.251h9.188l-2.625,4.875h-15.563l1.313-13.126h-.001ZM177.201,32.815l.187,12.563h6.563l-.188-12.563h-6.563.001ZM150.011,45.378l3.375-12.563h6.375l-3.188,12.563h-6.563.001ZM222.016,23.252l-1.875,15.001h-2.625l1.313-10.501h-9.375l-1.313,10.501h-2.625l1.875-15.001h14.626s-.001,0-.001,0ZM239.83,6.188l.375-3.188h-45.753l-.375,3.188h3l-.75,5.625h39.377l2.437-3.938h-31.502l.188-1.875h33.002v.188h.001ZM197.452,45.378l-1.125-3-1.501,3h-6.187l2.437-5.063,2.063-17.251h12.938l-2.625,22.127h-6v.188h0ZM200.077,27.377h-1.688l-.187,2.063h1.688l.187-2.063ZM199.327,33.19h-1.687l-.188,2.063h1.688l.187-2.063ZM198.764,39.003h-1.688l-.187,2.063h1.688l.187-2.063ZM194.077,21.939h42.19l1.126-8.813h-42.191l-1.125,8.813ZM204.202,16.501h23.064l-.188,1.688h-22.876v-1.688ZM223.329,23.252h12.751l-2.063,17.251h2.625l-2.25,4.875h-6.187l.562-4.688h-.938l-.188-8.063-1.125,9.376-1.875,3.563h-9.751l-1.687-2.625-2.063,2.625h-6.938l5.813-7.688,1.125-8.438h6.375l-.938,8.063,3.563,5.813,1.5-2.813,1.688-17.251s.001,0,.001,0ZM228.954,30.002v6l.938-8.063h-2.062l-.188,2.063h1.313s-.001,0-.001,0Z"/>
</svg>